<?xml version="1.0" encoding="utf-8"?>
<!-- Generator: Adobe Illustrator 15.0.0, SVG Export Plug-In . SVG Version: 6.00 Build 0)  -->
<!DOCTYPE svg PUBLIC "-//W3C//DTD SVG 1.1//EN" "http://www.w3.org/Graphics/SVG/1.1/DTD/svg11.dtd">
<svg version="1.1" id="Layer_1" xmlns="http://www.w3.org/2000/svg" xmlns:xlink="http://www.w3.org/1999/xlink" x="0px" y="0px"
	 width="300px" height="269.6px" viewBox="0 0 300 269.6" style="enable-background:new 0 0 300 269.6;" xml:space="preserve">
<style type="text/css">
<![CDATA[
	.st0{fill:#5D2E8F;}
	.st1{fill:#FFFFFF;}
	.st2{display:none;fill:#BCA0CC;}
	.st3{display:none;fill:#5D2E8F;}
]]>
</style>
<path class="st3" d="M44.1-8.7C21-8.7,2.3,10,2.3,33.1c0,23,18.7,41.7,41.7,41.7c23,0,41.7-18.7,41.7-41.7
	C85.8,10,67.1-8.7,44.1-8.7z"/>
<circle class="st2" cx="-16.1" cy="9.7" r="81.2"/>
<g id="XMLID_2_">
	<g>
		<path class="st1" d="M18.8,110.7c17.3-38.3,59.6-59,100.7-59.2c26.1-0.2,51.4,1.5,74.8-12c3.5-2,19.3-18,25.4-17.6
			c-2.2,15.3-7,29.7-14.4,43.1c33.2-6.4,56.6-28.6,72.1-57.5c39.1,59.4,4.1,136.3-41.3,180.3c5.9-2.4,12-4.3,18.2-5.7
			c-26.7,46.2-95.4,76.5-122.4,78.6C46.7,273.2-19.7,196.1,18.8,110.7z"/>
	</g>
	<g>
	</g>
</g>
<g>
	<path class="st0" d="M48.3,214V101.7l0,0L111.7,214L175,101.7l0,0V214h-11h11h-63.3l0,0H49.1h10H48.3z"/>
</g>
</svg>
