<?xml version="1.0" encoding="utf-8"?>
<!-- Generator: Adobe Illustrator 15.0.0, SVG Export Plug-In . SVG Version: 6.00 Build 0)  -->
<!DOCTYPE svg PUBLIC "-//W3C//DTD SVG 1.1//EN" "http://www.w3.org/Graphics/SVG/1.1/DTD/svg11.dtd">
<svg version="1.1" id="Layer_1" xmlns="http://www.w3.org/2000/svg" xmlns:xlink="http://www.w3.org/1999/xlink" x="0px" y="0px"
	 width="120px" height="108px" viewBox="0 0 120 108" style="enable-background:new 0 0 120 108;" xml:space="preserve">
<style type="text/css">
<![CDATA[
	.st0{fill:#5D2E8F;}
	.st1{fill:#FFFFFF;}
	.st2{display:none;fill:#BCA0CC;}
	.st3{display:none;fill:#5D2E8F;}
]]>
</style>
<g id="XMLID_2_">
	<g>
		<path class="st0" d="M52.4,104.5C18.2,109.5-8.4,78.6,7,44.3C14,29,31,20.7,47.4,20.6c10.4-0.1,20.6,0.6,30-4.8
			c1.4-0.8,7.7-7.2,10.2-7c-0.9,6.1-2.8,11.9-5.8,17.3c13.3-2.5,22.7-11.5,28.9-23.1c15.7,23.8,1.6,54.6-16.6,72.3
			c2.4-1,4.8-1.7,7.3-2.3C90.7,91.5,63.2,103.6,52.4,104.5z"/>
	</g>
	<g>
	</g>
</g>
<path class="st3" d="M44.3,21.5c-23.1,0-41.7,18.7-41.7,41.8c0,23,18.7,41.7,41.7,41.7c23,0,41.7-18.7,41.7-41.7
	C86,40.2,67.3,21.5,44.3,21.5z"/>
<circle class="st2" cx="-15.9" cy="39.9" r="81.2"/>
<g>
	<path class="st1" d="M18.9,85.7v-45l0,0l25.4,45l25.4-45l0,0v45h-4.4h4.4H44.3l0,0H19.2h4H18.9z"/>
</g>
</svg>
